<svg xmlns="http://www.w3.org/2000/svg" viewBox="0 0 100 100" width="100" height="100">
  <!-- Background circle -->
  <circle cx="50" cy="50" r="48" fill="#fff" stroke="#c0392b" stroke-width="2.5"/>
  
  <!-- Folk crown: 5 hearts at top -->
  <!-- Center heart -->
  <path d="M50 28 C50 28 46 22 42 22 C38 22 35 25 35 29 C35 33 38 36 42 39 L50 46 L58 39 C62 36 65 33 65 29 C65 25 62 22 58 22 C54 22 50 28 50 28 Z" fill="#c0392b"/>
  <!-- Left heart -->
  <path d="M34 30 C34 30 31 25 27.5 25 C24 25 21.5 27.5 21.5 30.5 C21.5 33.5 24 36 27.5 38.5 L34 44 L40.5 38.5 C44 36 46.5 33.5 46.5 30.5 C46.5 27.5 44 25 40.5 25 C37 25 34 30 34 30 Z" fill="#e74c3c" transform="scale(0.72) translate(12, 2)"/>
  <!-- Right heart -->
  <path d="M66 30 C66 30 63 25 59.5 25 C56 25 53.5 27.5 53.5 30.5 C53.5 33.5 56 36 59.5 38.5 L66 44 L72.5 38.5 C76 36 78.5 33.5 78.5 30.5 C78.5 27.5 76 25 72.5 25 C69 25 66 30 66 30 Z" fill="#e74c3c" transform="scale(0.72) translate(-4, 2)"/>

  <!-- Decorative dots -->
  <circle cx="22" cy="38" r="2.5" fill="#c0392b"/>
  <circle cx="78" cy="38" r="2.5" fill="#c0392b"/>
  <circle cx="17" cy="46" r="1.8" fill="#e74c3c"/>
  <circle cx="83" cy="46" r="1.8" fill="#e74c3c"/>

  <!-- Letter G -->
  <text x="50" y="80" 
    font-family="Georgia, serif" 
    font-size="42" 
    font-weight="bold" 
    fill="#c0392b" 
    text-anchor="middle"
    dominant-baseline="auto">G</text>

  <!-- Bottom decorative line -->
  <path d="M25 86 Q50 90 75 86" stroke="#c0392b" stroke-width="2" fill="none"/>
</svg>
